<svg width="56" height="56" viewBox="0 0 24 24" fill="none" xmlns="http://www.w3.org/2000/svg">
<path d="M12 2C6.47715 2 2 6.47715 2 12C2 17.5228 6.47715 22 12 22C17.5228 22 22 17.5228 22 12C22 6.47715 17.5228 2 12 2Z" stroke="#007bff" stroke-width="2" stroke-linecap="round" stroke-linejoin="round"/>
<path d="M2.05005 12H21.95" stroke="#007bff" stroke-width="2" stroke-linecap="round" stroke-linejoin="round"/>
<path d="M12 2.05005C14.9901 3.30005 17.0099 5.69995 18 8.00005C18.9901 10.3001 19.0099 13.6999 18 16C17.0099 18.3001 14.9901 20.6999 12 21.95" stroke="#007bff" stroke-width="2" stroke-linecap="round" stroke-linejoin="round"/>
<path d="M12 2.05005C9.0099 3.30005 6.9901 5.69995 6 8.00005C5.0099 10.3001 4.9901 13.6999 6 16C6.9901 18.3001 9.0099 20.6999 12 21.95" stroke="#007bff" stroke-width="2" stroke-linecap="round" stroke-linejoin="round"/>
</svg>